PathFileType	4	(X/Y/Z)	Patient4_TMGait_0pt2_01_right_01.trc.trc
DataRate	CameraRate	NumFrames	NumMarkers	Units	OrigDataRate	OrigDataStartFrame	OrigNumFrames
44.303797468354	44.303797468354	4	33	mm	44.303797468354	124	       141
Frame#	Time	Sacral			L.Shoulder			Chest			R.Shoulder			Neck			R.ASIS			L.ASIS			R.Thigh.Superior			R.Thigh.Lateral			R.Thigh.Inferior			R.Patella			L.Thigh.Superior			L.Thigh.Lateral			L.Thigh.Inferior			L.Patella			L.Shank.Superior			L.Shank.Lateral			L.Shank.Inferior			R.Shank.Superior			R.Shank.Lateral			R.Shank.Inferior			R.Heel			R.Midfoot.Superior			R.Midfoot.Lateral			R.Toe			L.Heel			L.Midfoot.Lateral			L.Midfoot.Superior			L.Toe			L.Elbow			L.Wrist			R.Elbow			R.Wrist			
		X1	Y1	Z1	X2	Y2	Z2	X3	Y3	Z3	X4	Y4	Z4	X5	Y5	Z5	X6	Y6	Z6	X7	Y7	Z7	X8	Y8	Z8	X9	Y9	Z9	X10	Y10	Z10	X11	Y11	Z11	X12	Y12	Z12	X13	Y13	Z13	X14	Y14	Z14	X15	Y15	Z15	X16	Y16	Z16	X17	Y17	Z17	X18	Y18	Z18	X19	Y19	Z19	X20	Y20	Z20	X21	Y21	Z21	X22	Y22	Z22	X23	Y23	Z23	X24	Y24	Z24	X25	Y25	Z25	X26	Y26	Z26	X27	Y27	Z27	X28	Y28	Z28	X29	Y29	Z29	X30	Y30	Z30	X31	Y31	Z31	X32	Y32	Z32	X33	Y33	Z33	

124	2.786285714286	868.944859864765	1000.723420208046	419.379131235052	1084.536369908191	1431.419919422491	281.131385452379	1144.636410791818	1364.444873126274	461.747126015296	1021.383623736740	1438.547101769653	609.503659946907	1030.662738584342	1492.685801611015	431.378801667823	1071.521540856575	937.295783438170	581.866215134908	1110.637214464612	958.023128908050	308.804437927257	1134.524031435526	751.332817662515	563.913842499092	1064.637463934482	634.812283135169	626.275281159595	1156.059633431065	590.988988002222	555.708242335361	1172.571269308441	512.849802787287	571.387009858186	1111.736753758435	729.645823585930	342.399347087922	1007.755112761089	627.411018752822	267.074593769988	1059.267925206493	540.247233367360	342.677526916808	1043.717232435713	475.074408120852	352.331052319134	1012.916899668172	407.631468093127	342.393819178934	918.448071000116	299.819228748173	287.727582077661	949.308298076127	187.571755962432	367.242745857590	1163.275132138585	422.944692462529	584.422914062694	1111.751948037888	310.096542915895	651.258909973232	1184.399332476410	224.042584874396	603.505648639034	1092.132745772234	41.590166605469	581.529459366914	1257.265576102923	111.082143816952	619.424890535932	1178.335964388560	36.017101510291	651.551537946588	1381.120266151773	71.694793815226	639.431568696937	807.663245552651	38.171630902675	404.868609712284	884.312823228522	35.514198573658	326.865175603085	967.742218428332	95.928732559702	357.248926968290	1096.707878151600	41.064630160560	332.752805244723	1257.217311125809	1160.741913311074	132.040746956521	1513.655128238130	1118.485700727883	170.374292220059	868.518657809336	1120.863973124365	683.542663405741	863.745140575452	857.685787795034	680.042747141978	
125	2.808857142857	872.287537609347	999.592832555155	424.269188192972	1085.978476064372	1430.797440971318	286.150545251867	1146.859609436646	1363.930366983287	466.577969470963	1023.803034260878	1437.539958134775	614.721414238713	1032.350277717412	1491.861289494998	436.542263874549	1075.670100809579	936.337481415953	585.824218000531	1113.702971444986	957.558094776220	312.826946919059	1139.003548004768	750.246444024943	566.458183790817	1068.441615708413	633.345533625319	627.969877308337	1159.560904176956	590.103151933725	556.926746786547	1174.609289565625	511.210556958034	571.684777394599	1113.071299566361	728.359349968989	345.087084448159	1007.375839082392	627.376105808178	269.835262350224	1058.280927400268	539.394140803956	344.739452097017	1042.139943359494	474.262866786758	354.163498410955	1010.805163942295	407.194374299360	344.023095807662	915.250294898271	300.415752076163	289.000216054159	945.563353397393	187.425033516051	367.705729316239	1165.191191064913	420.882726926560	584.766426444424	1112.942820041329	308.520345689729	651.396474458728	1183.917853103156	222.070992606307	602.628496069295	1088.953813253429	41.931514066441	580.597293451951	1254.939775588950	109.154224302450	617.540291826968	1174.891767509841	36.282438313377	650.926534329075	1378.098623337662	68.148023073047	638.343276159407	803.172282681396	38.287625378005	404.815722488309	879.855426861086	35.558696775305	326.904178984046	963.318833839790	95.939664535065	357.261934305701	1092.242565179836	40.940991039782	332.701348027311	1260.620474831205	1161.471857774799	137.302800139123	1517.591848349053	1122.402236922080	175.456107452282	873.884451206218	1118.232959298378	688.958888963850	871.022228590669	854.977127084302	685.933443600683	
126	2.831428571429	875.751812091951	998.769928159645	429.609520142873	1087.541141587004	1430.423776948039	291.348254522175	1149.429144638469	1363.572128515391	471.494903190265	1026.801300649224	1436.684801621866	620.217496228206	1034.327247187502	1491.240355422927	441.978922520379	1080.259028421129	935.733451603923	589.937329498399	1116.739063055902	957.224800528652	316.945940765259	1143.968383838862	749.524985421321	568.854144703469	1073.185662808554	632.370883740367	629.875423071195	1163.702828356246	589.498893284108	558.070027530233	1177.509825193313	509.669041785194	572.015930893184	1114.630087028295	727.202009539882	347.994576634372	1007.384419270549	627.349073047513	272.966122386580	1057.916670751590	538.607217963012	347.132499466315	1041.237184577634	473.418553771741	356.353494744312	1009.244959036781	406.721851439548	345.963090002906	912.413293273247	301.186043463885	290.537389345287	942.044486202924	187.335188503565	368.270361872496	1167.500594649605	418.965975453706	585.096162540680	1114.198660022872	307.290996017407	651.694796840449	1182.918241680772	220.093091077219	601.684964091482	1084.407110615836	42.298086114003	579.703257449313	1251.425742991825	107.079015055167	615.598454568546	1170.110849105928	36.547224762844	650.383150980438	1373.919328949074	64.334052133854	637.269944876057	798.719190897957	38.596308844998	404.746844657728	875.449236962592	35.724420733446	326.957914774180	958.992779821887	96.000172920012	357.282582799002	1087.812600107349	40.778096554105	332.640236271225	1263.457378122906	1162.000796312258	142.477387892134	1520.863340819487	1125.429538639235	180.324660836227	879.709800759899	1115.932785609995	695.165739260712	878.533667545355	852.643948011233	692.995694143246	
127	2.854000000000	879.269662949834	998.309166634273	435.360799270339	1089.246857242092	1430.306576382060	296.642163843911	1152.321485842222	1363.392009239664	476.429818486841	1030.345348416732	1436.053874700970	625.888554295872	1036.603308937078	1490.863366459020	447.584841671623	1085.151028457077	935.518253683074	594.218834555140	1119.683464997708	957.036498280917	321.166298380104	1149.163809769088	749.142547323148	571.250034619225	1078.508117674719	631.867871788972	632.090567757920	1168.167095878221	589.138554772399	559.299805033430	1180.967404600702	508.297414294808	572.522331190268	1116.341282367191	726.220102743738	351.146879055634	1007.743650227871	627.375009018271	276.437657475417	1058.132503983816	537.920492791339	349.820311559569	1040.966201994082	472.580465839879	358.854170248302	1008.209561463140	406.256035040525	348.171189536431	909.930529455391	302.162620295068	292.312991625255	938.752961072676	187.345566017876	368.916785410907	1170.026311721792	417.290281362248	585.530650304634	1115.526353391743	306.391190827218	652.248858987262	1181.620285575556	218.232153969006	600.816837084996	1079.124015757941	42.622865794659	578.954873226397	1247.231471542400	105.033147696418	613.785435618821	1164.646150407520	36.767638757092	649.975341487033	1369.146014925990	60.592472447650	636.274968671904	794.311313939989	39.179371892928	404.661938919662	871.096930446197	36.059333100350	327.023991628252	954.783288717065	96.127006324372	357.305959788570	1083.414222058753	40.568371154782	332.569472546454	1265.731321691533	1162.307193729914	147.517778254478	1523.490901802671	1127.564375309515	184.930503890637	885.866952854763	1114.110281098398	702.075961342639	886.189453856033	850.826040609211	701.118944381610	
